<svg xmlns="http://www.w3.org/2000/svg"><symbol id="email" viewBox="0 0 19 14"><path d="M16.68 0H2.323C1.042 0 0 1.009 0 2.25v9.5C0 12.991 1.042 14 2.323 14h14.354C17.958 14 19 12.991 19 11.75V2.253C19.004 1.013 17.962 0 16.68 0zm1.262 11.75c0 .674-.566 1.222-1.262 1.222H2.323c-.695 0-1.262-.548-1.262-1.222V2.253c0-.673.567-1.221 1.262-1.221h14.354c.695 0 1.262.548 1.262 1.221v9.497h.003z" fill="#00B2FF"/><path d="M11.983 6.882l4.646-4.035a.505.505 0 00.04-.727.546.546 0 00-.751-.038L9.51 7.651 8.26 6.57c-.004-.004-.008-.008-.008-.012a.78.78 0 00-.087-.072L3.078 2.078a.542.542 0 00-.75.042.502.502 0 00.043.727l4.702 4.07L2.39 11.16a.504.504 0 00-.023.727.541.541 0 00.75.027l4.754-4.305L9.16 8.724a.54.54 0 00.708-.004l1.325-1.15 4.725 4.348c.102.095.236.14.366.14a.537.537 0 00.385-.16.504.504 0 00-.02-.726l-4.666-4.29z" fill="#00B2FF"/></symbol><symbol id="fb" viewBox="0 0 27 27"><path d="M27 13.5C27 6.045 20.956 0 13.5 0S0 6.045 0 13.5C0 20.956 6.044 27 13.5 27S27 20.956 27 13.5zM16.884 9.294h-1.74c-.469 0-.798.397-.798.891v.775h2.485l-.402 2.517h-2.083v6.747h-2.543v-6.747h-1.688V10.96h1.688V9.677h.004c.045-1.463.553-2.856 3.031-2.944v-.01h2.046v2.571z" fill="#CDCDCD"/></symbol><symbol id="ok" viewBox="0 0 27 26"><path d="M13.851 10.957c1.016 0 1.806-.836 1.787-1.746.019-.91-.752-1.764-1.768-1.764-.978 0-1.787.78-1.787 1.746 0 .965.79 1.764 1.768 1.764z" fill="#CDCDCD"/><path d="M13.701 0C6.441 0 .535 5.831.535 13c0 7.187 5.906 13 13.166 13 7.279 0 13.166-5.831 13.166-13C26.885 5.83 20.98 0 13.7 0zm.188 4.921c2.37 0 4.326 1.932 4.307 4.29 0 2.377-1.975 4.29-4.382 4.253-2.37-.037-4.27-1.95-4.27-4.271 0-2.359 1.938-4.272 4.345-4.272zm4.834 10.029c0 .037-.019.056-.019.093a1.213 1.213 0 01-.564.873c-.207.13-.433.26-.659.371a8.55 8.55 0 01-1.786.65c-.075.019-.075.019-.02.074l1.035 1.022 1.317 1.3c.62.613.451 1.634-.339 2.006-.131.074-.282.092-.432.13h-.245c-.019 0-.037 0-.037-.02-.301-.036-.546-.185-.771-.39l-2.276-2.246c-.057-.056-.057-.056-.113 0l-2.295 2.265c-.131.13-.263.223-.432.298-.113.055-.245.074-.358.092h-.244c-.038 0-.057-.018-.094-.018-.508-.093-.847-.372-.997-.854-.15-.483-.038-.91.32-1.263l.94-.929 1.392-1.374c.056-.056.056-.056-.019-.074-.019 0-.056-.019-.075-.019a8.182 8.182 0 01-2.351-.984c-.433-.279-.64-.687-.583-1.189.094-.928 1.147-1.43 1.937-.928.15.092.282.167.451.241a5.413 5.413 0 002.746.557c.47-.018.94-.111 1.411-.26.451-.148.846-.353 1.26-.575.677-.39 1.561-.075 1.825.65.037.11.056.204.075.315v.186z" fill="#CDCDCD"/></symbol><symbol id="phone" viewBox="0 0 18 18"><path d="M14.233 11.15c-.369-.383-.814-.588-1.286-.588-.468 0-.917.2-1.3.585l-1.203 1.196c-.099-.053-.198-.102-.293-.152a4.832 4.832 0 01-.377-.201c-1.126-.714-2.15-1.645-3.13-2.85-.476-.6-.796-1.105-1.028-1.618.312-.285.601-.581.883-.866l.32-.323c.798-.798.798-1.831 0-2.629l-1.04-1.037c-.117-.118-.24-.24-.353-.36A17.952 17.952 0 004.71 1.6c-.369-.365-.81-.559-1.274-.559-.464 0-.913.194-1.294.559l-.007.007L.84 2.91a2.778 2.778 0 00-.825 1.767c-.092 1.11.236 2.142.487 2.819.616 1.66 1.537 3.198 2.91 4.847a17.9 17.9 0 005.962 4.662c.875.414 2.043.904 3.348.987.08.004.163.008.24.008.878 0 1.617-.315 2.195-.942.004-.008.011-.012.015-.02.198-.239.426-.455.666-.687.163-.156.33-.319.494-.49.377-.391.575-.847.575-1.314 0-.471-.202-.924-.586-1.303l-2.089-2.094zm1.362 4c-.004 0-.004.005 0 0-.148.16-.3.305-.464.464a9.977 9.977 0 00-.734.76c-.384.41-.837.604-1.43.604-.058 0-.119 0-.176-.004-1.13-.072-2.18-.513-2.967-.889a16.898 16.898 0 01-5.616-4.391C2.911 10.132 2.043 8.689 1.47 7.139c-.354-.946-.483-1.683-.426-2.379.038-.444.21-.813.525-1.128l1.297-1.295c.187-.175.385-.27.579-.27.24 0 .433.144.555.266l.011.011c.233.217.453.44.685.68.118.122.24.243.362.369L6.095 4.43c.404.403.404.775 0 1.178-.11.11-.217.22-.327.326-.32.327-.624.63-.955.927-.007.008-.015.012-.019.02-.327.326-.266.645-.198.862l.012.034c.27.653.65 1.269 1.229 2.002l.003.004c1.05 1.291 2.158 2.298 3.379 3.07.156.098.316.178.468.254.137.068.266.133.377.201.015.008.03.02.045.027.13.064.251.095.377.095.316 0 .513-.198.578-.262l1.301-1.3c.13-.129.335-.285.575-.285.236 0 .43.149.548.278l.007.007 2.097 2.094c.391.387.391.786.003 1.189zM9.728 4.282a4.827 4.827 0 012.626 1.36 4.84 4.84 0 011.362 2.621.51.51 0 00.506.426c.03 0 .057-.004.087-.008a.513.513 0 00.422-.593 5.856 5.856 0 00-1.647-3.172 5.871 5.871 0 00-3.177-1.645.516.516 0 00-.593.418.507.507 0 00.414.593zm8.264 3.658a9.635 9.635 0 00-2.713-5.223 9.659 9.659 0 00-5.23-2.71.512.512 0 10-.168 1.011 8.65 8.65 0 014.676 2.42 8.601 8.601 0 012.423 4.67.51.51 0 00.506.425c.03 0 .057-.004.088-.008a.503.503 0 00.418-.585z" fill="#00B2FF"/></symbol><symbol id="vk" viewBox="0 0 27 26"><path d="M19.475 15.127c-1.109-1.024-1.188-1.024-.238-2.206 1.188-1.497 2.773-3.388 1.347-3.388H17.97c-.475 0-.554.316-.713.71-.633 1.496-1.9 3.466-2.376 3.15-.475-.314-.237-1.496-.237-3.387a.61.61 0 00-.159-.63c-.158-.158-.396-.315-.633-.315-.396-.079-.792-.158-1.188-.158-1.505 0-2.535.63-1.98.71 1.03.157.95 2.363.712 3.308-.396 1.655-1.98-1.26-2.693-2.757-.079-.394-.396-.63-.792-.63H5.852c-.317 0-.554.078-.554.315 0 .393 1.98 4.254 3.801 6.224 1.822 1.89 3.644 1.733 4.911 1.733a.607.607 0 00.396-.158.6.6 0 00.158-.394c0-1.26.476-1.89 1.347-1.024.95.945 1.188 1.576 2.376 1.576h2.138c.555 0 .713-.158.713-.394.08-.552-.871-1.576-1.663-2.285zM13.852.001c7.366.157 13.226 6.066 13.147 13.235-.079 7.17-6.178 12.842-13.543 12.763C6.01 25.92.07 20.17.07 13 .15 5.753 6.327-.077 13.852.002z" fill="#CDCDCD"/></symbol></svg>